<svg width="64" height="64" version="1.0" xmlns="http://www.w3.org/2000/svg"><defs><clipPath id="b"><path d="m-1.5638 219.17h814.39v-220.24h-814.39z" stroke-width="7.5"/></clipPath><clipPath id="a"><path d="m-1.5638 219.17h814.39v-220.24h-814.39z" stroke-width="7.5"/></clipPath></defs><path transform="matrix(.29682 0 0 .29682 1.5222e-5 .51736)" d="m12.037 188.85s18.502-4.6575 10.905-17.37c-1.0275-1.2825-2.0175-2.5875-2.985-3.915l-0.165-0.1875c-0.4125-0.4425-0.735-0.915-0.9675-1.41-11.872-17.048-18.825-37.672-18.825-59.902 0-58.575 48.27-106.06 107.81-106.06 6.03 0 11.572 0.495 17.332 1.4325l-0.405 0.8925c-13.125 1.8675-32.258 6.9975-46.058 17.182-25.575 18.892-28.605 44.078 13.275 65.242 41.872 21.165 38.138 44.408 10.658 64.942-25.268 18.878-47.19 29.122-67.44 36.742-10.02 3.7725-18.352 6.51-24.638 8.025z" clip-path="url(#a)" fill="#004e9f"/><path transform="matrix(.29682 0 0 .29682 1.5222e-5 .51736)" d="m153.05 9.7605 0.06 0.03c1.14-0.2325 2.2275-0.4425 3.2775-0.645 3.96-0.705 6.3975-1.0575 6.3975-1.0575l-0.27-0.075c8.6475-1.53 13.08-1.9725 15.225-2.1075l-1.1625 4.035s-16.222 1.6425-4.665 10.83c26.52 19.328 43.71 50.332 43.71 85.298 0 58.575-48.262 106.06-107.8 106.06-2.79 0-5.55-0.105-8.28-0.315l0.285-1.65c27.142-7.9425 84.69-51.945 75.42-97.628-7.785-38.385-72.75-49.275-81.172-69.345-7.7775-18.548 38.242-29.498 58.98-33.435" clip-path="url(#b)" fill="#00a139"/></svg>
